<?xml version="1.0" encoding="UTF-8" standalone="no"?>
<svg width="500" height="500" viewBox="0 0 500 500" xmlns="http://www.w3.org/2000/svg">
  <!-- Background -->
  <rect width="500" height="500" fill="#7DD3CE"/>
  
  <!-- Sun -->
  <circle cx="100" cy="100" r="60" fill="#FFD700"/>
  <path d="M100 20 L100 40 M100 160 L100 180 M20 100 L40 100 M160 100 L180 100 M38 38 L52 52 M148 148 L162 162 M38 162 L52 148 M148 38 L162 52" stroke="#FFD700" stroke-width="10"/>
  
  <!-- Clouds -->
  <ellipse cx="250" cy="80" rx="60" ry="40" fill="#F8F8F8"/>
  <ellipse cx="310" cy="90" rx="40" ry="30" fill="#F8F8F8"/>
  <ellipse cx="200" cy="90" rx="40" ry="30" fill="#F8F8F8"/>
  
  <ellipse cx="400" cy="120" rx="50" ry="30" fill="#F8F8F8"/>
  <ellipse cx="440" cy="130" rx="30" ry="20" fill="#F8F8F8"/>
  <ellipse cx="360" cy="130" rx="30" ry="20" fill="#F8F8F8"/>
  
  <!-- Ground -->
  <rect x="0" y="350" width="500" height="150" fill="#8FBC8F"/>
  
  <!-- Small plants -->
  <path d="M50 350 C60 330, 70 330, 80 350" stroke="#4D8B31" stroke-width="5" fill="none"/>
  <path d="M120 350 C130 320, 140 320, 150 350" stroke="#4D8B31" stroke-width="5" fill="none"/>
  <path d="M400 350 C410 330, 420 330, 430 350" stroke="#4D8B31" stroke-width="5" fill="none"/>
  <path d="M460 350 C470 320, 480 320, 490 350" stroke="#4D8B31" stroke-width="5" fill="none"/>
  
  <!-- Flowers -->
  <circle cx="70" cy="360" r="5" fill="white"/>
  <circle cx="140" cy="370" r="5" fill="white"/>
  <circle cx="420" cy="360" r="5" fill="#FF6B6B"/>
  <circle cx="460" cy="375" r="5" fill="#FF6B6B"/>
  
  <!-- Stones -->
  <ellipse cx="200" cy="380" rx="10" ry="5" fill="#888"/>
  <ellipse cx="350" cy="385" rx="8" ry="4" fill="#888"/>
  <ellipse cx="380" cy="375" rx="6" ry="3" fill="#888"/>
  
  <!-- Hobo Character -->
  <!-- Legs -->
  <path d="M250 340 L230 400 L240 400" fill="#8B4513"/>
  <path d="M250 340 L270 400 L260 400" fill="#8B4513"/>
  
  <!-- Feet/Shoes -->
  <ellipse cx="230" cy="405" rx="15" ry="8" fill="#E0E0E0"/>
  <ellipse cx="270" cy="405" rx="15" ry="8" fill="#E0E0E0"/>
  <path d="M220 405 L240 405" stroke="#333" stroke-width="2" fill="none"/>
  <path d="M260 405 L280 405" stroke="#333" stroke-width="2" fill="none"/>
  
  <!-- Body/Coat -->
  <path d="M250 220 L250 340" stroke="#8B4513" stroke-width="40" fill="#8B4513"/>
  <path d="M230 250 L200 300" stroke="#8B4513" stroke-width="15" fill="#8B4513"/>
  <path d="M270 250 L300 300" stroke="#8B4513" stroke-width="15" fill="#8B4513"/>
  
  <!-- Patches on coat -->
  <rect x="240" y="270" width="20" height="20" fill="#DAA06D" />
  <rect x="255" y="310" width="15" height="15" fill="#DAA06D" />
  <rect x="230" y="330" width="10" height="10" fill="#DAA06D" />
  
  <!-- Stitches -->
  <path d="M240 270 L260 270 M240 280 L260 280 M240 290 L260 290" stroke="#5D4037" stroke-width="2"/>
  <path d="M235 330 L240 330 M235 335 L240 335" stroke="#5D4037" stroke-width="2"/>
  <path d="M255 310 L270 310 M255 320 L270 320" stroke="#5D4037" stroke-width="2"/>
  
  <!-- Head -->
  <circle cx="250" cy="180" r="40" fill="#DAA06D"/>
  
  <!-- Beard -->
  <path d="M220 190 C210 210, 290 210, 280 190" fill="#8B4513"/>
  <path d="M220 190 C230 230, 270 230, 280 190" fill="#8B4513"/>
  
  <!-- Hat -->
  <path d="M200 160 L300 160 L280 180 L220 180 Z" fill="#8B4513"/>
  <path d="M220 140 C220 120, 280 120, 280 140 L280 160 L220 160 Z" fill="#8B4513"/>
  
  <!-- Eyes -->
  <ellipse cx="235" cy="170" rx="5" ry="7" fill="white"/>
  <ellipse cx="265" cy="170" rx="5" ry="7" fill="white"/>
  <circle cx="235" cy="170" r="2" fill="black"/>
  <circle cx="265" cy="170" r="2" fill="black"/>
  
  <!-- Nose -->
  <path d="M250 175 C260 180, 255 190, 250 195" stroke="#A0522D" stroke-width="3" fill="none"/>
  
  <!-- Mouth -->
  <path d="M235 200 C245 210, 255 210, 265 200" stroke="#5D4037" stroke-width="2" fill="none"/>
  
  <!-- Hat patches -->
  <rect x="240" y="145" width="10" height="10" fill="#DAA06D" />
  <path d="M240 145 L250 145 M240 150 L250 150 M240 155 L250 155" stroke="#5D4037" stroke-width="1"/>
  
  <!-- Bindle stick with Solana logo -->
  <!-- Stick -->
  <line x1="300" y1="300" x2="320" y2="200" stroke="#8B4513" stroke-width="8"/>
  
  <!-- Bindle cloth -->
  <path d="M320 200 C330 190, 350 190, 360 200 C370 210, 370 230, 360 240 C350 250, 330 250, 320 240 C310 230, 310 210, 320 200 Z" fill="#DDDDDD" stroke="#AAAAAA" stroke-width="2"/>
  
  <!-- Solana Logo -->
  <circle cx="400" cy="400" r="50" fill="#000"/>
  <path d="M370 385 L400 365 L430 385 L400 405 Z" fill="#14F195"/>
  <path d="M370 415 L400 395 L430 415 L400 435 Z" fill="#9945FF"/>
  <path d="M370 400 L400 380 L430 400 L400 420 Z" fill="#1499F2"/>
  
  <!-- Patches of grass -->
  <path d="M100 350 Q110 330 120 350" fill="#4D8B31"/>
  <path d="M300 350 Q310 330 320 350" fill="#4D8B31"/>
  <path d="M350 350 Q360 330 370 350" fill="#4D8B31"/>
</svg>
